# xmcd CD database file generated by Grip 3.0.3
# 
# Track frame offsets:
#       150
#       11556
#       23457
#       33910
#       45680
#       55718
#       66511
#       75342
#       86136
#       96646
#       106124
#       116567
#       128521
#       138227
#       149025
#       159886
#       171919
#       181764
#       194529
#       207659
# 
# Disc length: 2925 seconds
# 
# Revision: 1
# Processed by: cddbd v1.4PL0 Copyright (c) Steve Scherf et al.
# Submitted via: Grip 3.0.3
# 
DISCID=0f0b6b14
DTITLE=Patsy Cline - Platinum Collection [CDTwo)
DYEAR=1900
DGENRE=Country
TTITLE0=Just Out Of Reach (Of My Two Open Arms)
TTITLE1=Never No More
TTITLE2=Walking Dream
TTITLE3=In The Care Of The Blues
TTITLE4=Turn The Cards Slowly
TTITLE5=Gotta Lot Of Rhythm In My Soul
TTITLE6=Ain't No Wheels On This Ship
TTITLE7=I Don't Wanna
TTITLE8=I Love You, Honey
TTITLE9=Love Me Honey Do
TTITLE10=Too Many Secrets
TTITLE11=Let The Teardrops Fall
TTITLE12=I'm Moving Along
TTITLE13=Stop, Look And Listen
TTITLE14=I Can See An Angel
TTITLE15=If I Could Only Stay Asleep
TTITLE16=I'm Blue Again
TTITLE17=Yes, I Understand
TTITLE18=Life's Railway To Heaven
TTITLE19=Today, Tomorrow And Forever
EXTD=
EXTT0=
EXTT1=
EXTT2=
EXTT3=
EXTT4=
EXTT5=
EXTT6=
EXTT7=
EXTT8=
EXTT9=
EXTT10=
EXTT11=
EXTT12=
EXTT13=
EXTT14=
EXTT15=
EXTT16=
EXTT17=
EXTT18=
EXTT19=
PLAYORDER=
